/* XPM */
static char *coin_xpm[] = {
"64 64 5 1",
" 	c #000000",
".	c #FFFF00",
"#	c #000000",
"$	c #000000",
"*	c #FFFF00",
"                                                                ",
"                                                                ",
"                                                                ",
"                                                                ",
"                                                                ",
"                                                                ",
"                                                                ",
"                                                                ",
"                        $$$$$$$$$$$$$$$$                        ",
"                        $******.*******$                        ",
"                        $******.*******$                        ",
"                        $..............$                        ",
"                        $******.*******$                        ",
"                        $******.*******$                        ",
"                        $******.*******$                        ",
"                        $******.*******$                        ",
"                $$$$$$$$#******.*******#$$$$$$$$                ",
"                $***.**********.***********.***$                ",
"                $..............................$                ",
"                $***...........................$                ",
"                $*.............................$                ",
"                $*.............................$                ",
"                $**............................$                ",
"                $***...........................$                ",
"        $$$$$$$$#***...........................#$$$$$$$$        ",
"        $*********...........................**********$        ",
"        $..............................................$        ",
"        $..............................................$        ",
"        $***......*****.....*............*........*****$        ",
"        $***......****.....**...................*.*****$        ",
"        $***......***......**............*..**..*..****$        ",
"        $****......*.......................*....*.*****$        ",
"        $***......**.............................******$        ",
"        $***......**.......................*......*****$        ",
"        $..............................................$        ",
"        $*****.........................................$        ",
"        $***********.**.............*******.***********$        ",
"        $*********...*.............*.***.*.....*.******$        ",
"        $*********..*...........*.*..***.*.*.**.*******$        ",
"        $$$$$$$$#..............................#$$$$$$$$        ",
"                $*...............**..***...*..*$                ",
"                $*..*.*.****.*.*.**..***...*..*$                ",
"                $*..*.*..***.*.**.*..***..*...*$                ",
"                $*...**....*.*.***.*......**.*.$                ",
"                $..............................$                ",
"                $***.**********.******.****.***$                ",
"                $***.**********.******.****.***$                ",
"                $$$$$$$$#******.****.**#$$$$$$$$                ",
"                        $******.****.**$                        ",
"                        $******.**..***$                        ",
"                        $******.**.****$                        ",
"                        $..............$                        ",
"                        $******..******$                        ",
"                        $******.*******$                        ",
"                        $*****..*******$                        ",
"                        $$$$$$$$$$$$$$$$                        ",
"                                                                ",
"                                                                ",
"                                                                ",
"                                                                ",
"                                                                ",
"                                                                ",
"                                                                ",
"                                                                "};