/* XPM */
static char * player_xpm[] = {
"64 64 10 1",
" 	c #000000",
".	c #000000",
"+	c #FFFFFF",
"@	c #FFFFFF",
"#	c #FFFFFF",
"$	c #FFFFFF",
"%	c #FFFFFF",
"&	c #FFFFFF",
"*	c #FFFFFF",
"=	c #FFFFFF",
"                        +==============+                        ",
"                        +==============+                        ",
"                        +==============+                        ",
"                        +==============+                        ",
"                        +==============+                        ",
"                        +==============+                        ",
"                        +==============+                        ",
"                        +==============+                        ",
"                        +==============+                        ",
"                        +==============+                        ",
"                        +==============+                        ",
"                        +==============+                        ",
"                        +==============+                        ",
"                        +==============+                        ",
"                        +==============+                        ",
"                        #==============#                        ",
"                %#+++++#================#+++++#%                ",
"                #==============================#                ",
"                +==============================+                ",
"                +==============================+                ",
"                +==============================+                ",
"                +==============================+                ",
"                #==============================#                ",
"                %#+++++#================#+++++#%                ",
"        %#++++#%        #==============#        %#++++#%        ",
"        #======#        +==============+        #======#        ",
"        +======+        +==============+        +======+        ",
"        +======+        +==============+        +======+        ",
"        +======+        +==============+        +======+        ",
"        +======+        +==============+        +======+        ",
"        +======+        +==============+        +======+        ",
"        +======+        +==============+        +======+        ",
"        +======+        +==============+        +======+        ",
"        +======+        +==============+        +======+        ",
"        +======+        +==============+        +======+        ",
"        +======+        +==============+        +======+        ",
"        +======+        +==============+        +======+        ",
"        +======+        +==============+        +======+        ",
"        #======#        #==============#        #======#        ",
"        %#++++#%        %#++++++++++++#%        %#++++#%        ",
"                %#++++#%                %#++++#%                ",
"                #======#                #======#                ",
"                +======+                +======+                ",
"                +======+                +======+                ",
"                +======+                +======+                ",
"                +======+                +======+                ",
"                +======+                +======+                ",
"                +======+                +======+                ",
"                +======+                +======+                ",
"                +======+                +======+                ",
"                +======+                +======+                ",
"                +======+                +======+                ",
"                +======+                +======+                ",
"                +======+                +======+                ",
"                +======+                +======+                ",
"                +======+                +======+                ",
"                +======+                +======+                ",
"                +======+                +======+                ",
"                +======+                +======+                ",
"                +======+                +======+                ",
"                +======+                +======+                ",
"                +======+                +======+                ",
"                +======+                +======+                ",
"                +======+                +======+                "};